<?xml version="1.0" encoding="UTF-8"?>
<svg width="25px" height="31px" viewBox="0 0 25 31" version="1.1" xmlns="http://www.w3.org/2000/svg" xmlns:xlink="http://www.w3.org/1999/xlink">
    <title>notification-ciond</title>
    <g id="Parent-Design" stroke="none" stroke-width="1" fill="none" fill-rule="evenodd">
        <g id="Home-Parent" transform="translate(-334.000000, -51.000000)" fill="#000000" fill-rule="nonzero">
            <g id="notification-ciond" transform="translate(334.000000, 51.000000)">
                <path d="M0.990898982,26.4111013 L7.73768147,26.4111013 C7.85672233,28.9529038 9.96010347,30.9782609 12.5000953,30.9782609 C15.0400872,30.9782609 17.1435179,28.9528329 17.2625092,26.4111013 L24.0092917,26.4111013 C24.3268261,26.4111013 24.6044889,26.2523592 24.8029682,26.0138312 C25.0014618,25.7755797 25.04105,25.4578261 24.9615973,25.1400866 L22.6201131,17.1175223 L22.62039,11.9148412 C22.62039,6.67223164 18.6120362,2.34336605 13.4922942,1.82706241 L13.4922942,0.992891613 C13.4922942,0.436886494 13.055719,0 12.5001099,0 C11.9445009,0 11.5079256,0.436886494 11.5079256,0.992891613 L11.5079256,1.82706241 C6.38839627,2.34345115 2.37982988,6.67237348 2.37982988,11.9148412 L2.37982988,17.1175223 L0.0383457669,25.1400866 C-0.0411069358,25.4578473 -0.00124167868,25.775601 0.196974778,26.0138312 C0.395468338,26.2520826 0.6734146,26.4111013 0.990934843,26.4111013 L0.990898982,26.4111013 Z M12.5,28.8043478 C11.0636973,28.8043478 9.89900197,27.7132851 9.7826087,26.3586957 L15.2173913,26.3586957 C15.1009495,27.7132851 13.9363027,28.8043478 12.5,28.8043478 L12.5,28.8043478 Z M4.46810587,17.585558 C4.50765668,17.5060493 4.50765668,17.3869247 4.50765668,17.307416 L4.50765668,11.9459892 C4.50765668,7.45808667 8.1555166,3.80434783 12.6360402,3.80434783 C17.1165638,3.80434783 20.7644237,7.45837035 20.7644237,11.9459892 L20.7644237,17.3076997 C20.7644237,17.3872083 20.7644237,17.506333 20.8039745,17.5858417 L22.826087,24.4565217 L2.44565217,24.4565217 L4.46810587,17.585558 Z" id="Shape"></path>
            </g>
        </g>
    </g>
</svg>