<?xml version="1.0" encoding="UTF-8"?>
<svg width="419px" height="214px" viewBox="0 0 419 214" version="1.1" xmlns="http://www.w3.org/2000/svg" xmlns:xlink="http://www.w3.org/1999/xlink">
    <title>bg3 - messagepage</title>
    <defs>
        <polygon id="path-1" points="0 0 109.104 0 109.104 109.10075 0 109.10075"></polygon>
    </defs>
    <g id="Parent-Design" stroke="none" stroke-width="1" fill="none" fill-rule="evenodd">
        <g id="Message-screen" transform="translate(28.000000, -331.000000)">
            <g id="bg3---messagepage" transform="translate(-28.000000, 331.000000)">
                <g id="Group-3" transform="translate(251.000000, 0.000000)">
                    <mask id="mask-2" fill="white">
                        <use xlink:href="#path-1"></use>
                    </mask>
                    <g id="Clip-2"></g>
                    <path d="M107.7958,1.30875 C107.5078,1.00375 107.5078,0.51775 107.7958,0.22875 C108.1008,-0.07625 108.5718,-0.07625 108.8758,0.22875 C109.1808,0.51775 109.1808,1.00375 108.8758,1.30875 C108.7248,1.44575 108.5268,1.52175 108.3438,1.52175 C108.1468,1.52175 107.9488,1.44575 107.7958,1.30875 M102.4268,6.67875 C102.1218,6.38975 102.1218,5.90375 102.4268,5.59875 C102.7148,5.30975 103.2018,5.30975 103.5068,5.59875 C103.7948,5.90375 103.7948,6.38975 103.5068,6.67875 C103.3538,6.83175 103.1558,6.90675 102.9578,6.90675 C102.7608,6.90675 102.5628,6.83175 102.4268,6.67875 M97.0408,12.06475 C96.7508,11.76075 96.7508,11.28975 97.0408,10.98475 C97.3438,10.68075 97.8158,10.68075 98.1208,10.98475 C98.4238,11.28975 98.4238,11.76075 98.1208,12.06475 C97.9678,12.21775 97.7698,12.27775 97.5868,12.27775 C97.3898,12.27775 97.1918,12.21775 97.0408,12.06475 M91.6698,17.43475 C91.3648,17.14675 91.3648,16.65975 91.6698,16.37075 C91.9578,16.06575 92.4448,16.06575 92.7348,16.37075 C93.0378,16.65975 93.0378,17.14675 92.7348,17.43475 C92.5818,17.58775 92.3988,17.66375 92.2018,17.66375 C92.0038,17.66375 91.8058,17.58775 91.6698,17.43475 M86.2838,22.82075 C85.9938,22.51675 85.9938,22.04575 86.2838,21.74075 C86.5718,21.45175 87.0588,21.45175 87.3638,21.74075 C87.6518,22.04575 87.6518,22.51675 87.3638,22.82075 C87.2118,22.97375 87.0128,23.03475 86.8158,23.03475 C86.6328,23.03475 86.4348,22.97375 86.2838,22.82075 M80.9128,28.19175 C80.6078,27.90275 80.6078,27.41575 80.9128,27.12675 C81.2018,26.82275 81.6878,26.82275 81.9778,27.12675 C82.2818,27.41575 82.2818,27.90275 81.9778,28.19175 C81.8258,28.34475 81.6438,28.41975 81.4458,28.41975 C81.2468,28.41975 81.0488,28.34475 80.9128,28.19175 M75.5268,33.57775 C75.2218,33.28875 75.2218,32.80175 75.5268,32.49775 C75.8168,32.20875 76.3018,32.20875 76.6068,32.49775 C76.8968,32.80175 76.8968,33.28875 76.6068,33.57775 C76.4548,33.73075 76.2578,33.80575 76.0598,33.80575 C75.8768,33.80575 75.6798,33.73075 75.5268,33.57775 M70.1408,38.94875 C69.8528,38.65975 69.8528,38.17275 70.1408,37.88375 C70.4448,37.57875 70.9328,37.57875 71.2208,37.88375 C71.5258,38.17275 71.5258,38.65975 71.2208,38.94875 C71.0688,39.10075 70.8868,39.17675 70.6888,39.17675 C70.4918,39.17675 70.2938,39.10075 70.1408,38.94875 M64.7708,44.33375 C64.4668,44.04475 64.4668,43.55875 64.7708,43.25375 C65.0598,42.96475 65.5468,42.96475 65.8508,43.25375 C66.1398,43.55875 66.1398,44.04475 65.8508,44.33375 C65.6978,44.48675 65.5008,44.56275 65.3028,44.56275 C65.1058,44.56275 64.9228,44.48675 64.7708,44.33375 M59.3848,49.70475 C59.0958,49.41575 59.0958,48.92875 59.3848,48.63975 C59.6888,48.33575 60.1758,48.33575 60.4658,48.63975 C60.7688,48.92875 60.7688,49.41575 60.4658,49.70475 C60.3118,49.85675 60.1298,49.93375 59.9318,49.93375 C59.7348,49.93375 59.5368,49.85675 59.3848,49.70475 M54.0138,55.09075 C53.7098,54.80175 53.7098,54.31475 54.0138,54.02575 C54.3028,53.72175 54.7898,53.72175 55.0798,54.02575 C55.3828,54.31475 55.3828,54.80175 55.0798,55.09075 C54.9418,55.24275 54.7438,55.31875 54.5458,55.31875 C54.3488,55.31875 54.1658,55.24275 54.0138,55.09075 M48.6288,60.47675 C48.3388,60.17275 48.3388,59.68475 48.6288,59.39575 C48.9328,59.09275 49.4188,59.09275 49.7088,59.39575 C49.9968,59.68475 49.9968,60.17275 49.7088,60.47675 C49.5568,60.62875 49.3578,60.68975 49.1768,60.68975 C48.9778,60.68975 48.7798,60.62875 48.6288,60.47675 M43.2578,65.84675 C42.9528,65.55875 42.9528,65.07075 43.2578,64.78175 C43.5468,64.47775 44.0328,64.47775 44.3378,64.78175 C44.6268,65.07075 44.6268,65.55875 44.3378,65.84675 C44.1858,65.99975 43.9888,66.07575 43.7908,66.07575 C43.5918,66.07575 43.3938,65.99975 43.2578,65.84675 M37.8718,71.23275 C37.5668,70.92875 37.5668,70.45675 37.8718,70.15275 C38.1758,69.86375 38.6468,69.86375 38.9518,70.15275 C39.2408,70.45675 39.2408,70.92875 38.9518,71.23275 C38.7998,71.38575 38.6028,71.46175 38.4048,71.46175 C38.2218,71.46175 38.0248,71.38575 37.8718,71.23275 M32.5008,76.60375 C32.1978,76.31475 32.1978,75.82775 32.5008,75.53875 C32.7898,75.23475 33.2778,75.23475 33.5658,75.53875 C33.8698,75.82775 33.8698,76.31475 33.5658,76.60375 C33.4288,76.75575 33.2318,76.83175 33.0338,76.83175 C32.8358,76.83175 32.6388,76.75575 32.5008,76.60375 M27.1158,81.98975 C26.8118,81.68575 26.8118,81.21375 27.1158,80.90875 C27.4188,80.62075 27.8918,80.62075 28.1958,80.90875 C28.4848,81.21375 28.4848,81.68575 28.1958,81.98975 C28.0428,82.14175 27.8458,82.21775 27.6478,82.21775 C27.4648,82.21775 27.2678,82.14175 27.1158,81.98975 M21.7298,87.36075 C21.4408,87.07075 21.4408,86.58375 21.7298,86.29475 C22.0328,85.99075 22.5208,85.99075 22.8098,86.29475 C23.1138,86.58375 23.1138,87.07075 22.8098,87.36075 C22.6568,87.51175 22.4748,87.58875 22.2768,87.58875 C22.0788,87.58875 21.8818,87.51175 21.7298,87.36075 M16.3588,92.74575 C16.0548,92.45675 16.0548,91.96975 16.3588,91.66575 C16.6478,91.37675 17.1348,91.37675 17.4388,91.66575 C17.7278,91.96975 17.7278,92.45675 17.4388,92.74575 C17.2858,92.89775 17.0888,92.97475 16.8908,92.97475 C16.7078,92.97475 16.5108,92.89775 16.3588,92.74575 M10.9728,98.13175 C10.6838,97.82775 10.6838,97.34075 10.9728,97.05175 C11.2778,96.74775 11.7638,96.74775 12.0538,97.05175 C12.3578,97.34075 12.3578,97.82775 12.0538,98.13175 C11.9018,98.26875 11.7028,98.34475 11.5218,98.34475 C11.3228,98.34475 11.1248,98.26875 10.9728,98.13175 M5.6018,103.50275 C5.2978,103.21375 5.2978,102.72575 5.6018,102.42275 C5.8918,102.13375 6.3778,102.13375 6.6828,102.42275 C6.9718,102.72575 6.9718,103.21375 6.6828,103.50275 C6.5308,103.65475 6.3328,103.73075 6.1358,103.73075 C5.9368,103.73075 5.7548,103.65475 5.6018,103.50275 M0.2158,108.88875 C-0.0722,108.58375 -0.0722,108.09675 0.2158,107.80775 C0.5208,107.50375 0.9918,107.50375 1.2968,107.80775 C1.6008,108.09675 1.6008,108.58375 1.2968,108.88875 C1.1448,109.04075 0.9468,109.10075 0.7648,109.10075 C0.5668,109.10075 0.3698,109.04075 0.2158,108.88875" id="Fill-1" fill="#FFFFFF" mask="url(#mask-2)"></path>
                </g>
                <g id="Group-3" transform="translate(98.000000, 88.000000)" fill="#A9904B">
                    <path d="M33.0004808,1 C15.3549245,1 1,15.3547088 1,33 C1,50.6443296 15.3549245,65 33.0004808,65 C50.6450755,65 65,50.6443296 65,33 C65,15.3547088 50.6450755,1 33.0004808,1 M33.0004814,66 C14.8039093,66 0,51.1963067 0,33 C0,14.8036933 14.8039093,0 33.0004814,0 C51.1960907,0 66,14.8036933 66,33 C66,51.1963067 51.1960907,66 33.0004814,66" id="Fill-1"></path>
                </g>
                <path d="M1.10054797,213.423 L-5.68434189e-14,213.078069 C6.97590519,190.800625 24.8650009,171.806367 46.6856139,163.50842 C68.5062269,155.211626 94.4948481,157.522316 114.511208,169.537208 C122.200047,174.152818 129.473585,180.251977 136.508324,186.150406 C151.635668,198.834395 165.918565,210.815832 184.326787,209.771811 C202.731549,208.72779 215.616266,195.115142 229.257754,180.70304 C241.293411,167.98675 253.739755,154.837855 270.355261,151.130139 C284.754673,147.918477 299.186387,152.541009 313.139351,157.012418 C321.421148,159.665731 329.98558,162.410179 338.528093,163.536107 C360.255263,166.402838 383.1049,158.288316 398.161873,142.362671 C413.216539,126.439334 420.03786,103.169782 415.96214,81.6375722 L417.09499,81.423 C421.238772,103.31283 414.30555,126.967689 398.999397,143.155204 C383.69209,159.342719 360.465221,167.585293 338.37697,164.680492 C329.732938,163.540721 321.118901,160.780122 312.787499,158.110659 C298.344249,153.483512 284.700454,149.111314 270.606749,152.25722 C254.33502,155.886491 242.012113,168.905027 230.095278,181.495573 C216.899085,195.437001 203.25529,209.852564 184.392543,210.923118 C165.539026,212.002901 150.400147,199.306223 135.76655,187.035228 C128.767573,181.164486 121.528644,175.094168 113.918251,170.525855 C94.1983692,158.687466 68.592748,156.410232 47.0963006,164.588203 C25.5975459,172.76156 7.97262788,191.474336 1.10054797,213.423" id="Fill-1" fill="#FFFFFF"></path>
            </g>
        </g>
    </g>
</svg>