<?xml version="1.0" encoding="UTF-8"?>
<svg width="24px" height="24px" viewBox="0 0 24 24" version="1.1" xmlns="http://www.w3.org/2000/svg" xmlns:xlink="http://www.w3.org/1999/xlink">
    <title>tasks-icon</title>
    <defs>
        <filter id="filter-1">
            <feColorMatrix in="SourceGraphic" type="matrix" values="0 0 0 0 0.081833 0 0 0 0 0.081833 0 0 0 0 0.081833 0 0 0 1.000000 0"></feColorMatrix>
        </filter>
    </defs>
    <g id="Parent-Design" stroke="none" stroke-width="1" fill="none" fill-rule="evenodd">
        <g id="tasks-icon" transform="translate(-255.000000, -1157.000000)" filter="url(#filter-1)">
            <g transform="translate(255.000000, 1157.000000)">
                <path d="M4.04434377,0 C1.82234755,0 0,1.82742192 0,4.0489551 L0,19.9565908 C0,22.1780736 1.82234755,24 4.04434377,24 L19.9556562,24 C22.1776525,24 24,22.1780736 24,19.9565908 L24,4.0489551 C24,1.82747233 22.1776525,0 19.9556562,0 L4.04434377,0 Z M4.04434377,2.18366987 L19.9556562,2.18366987 C21.0063919,2.18366987 21.8213222,2.99841186 21.8213222,4.04890469 L21.8213222,19.9565404 C21.8213222,21.0070332 21.0063919,21.8217752 19.9556562,21.8217752 L4.04434377,21.8217752 C2.99360814,21.8217752 2.17867784,21.0070332 2.17867784,19.9565404 L2.17867784,4.04890469 C2.17867784,2.99841186 2.99360814,2.18366987 4.04434377,2.18366987 Z M8.99741552,5.64118077 L8.9972185,5.64118077 C8.73128697,5.65831455 8.48052444,5.77195291 8.2925761,5.96101742 L6.26004108,8.01375381 L5.87394768,7.56019562 C5.68740126,7.3392271 5.42048133,7.20156293 5.13208879,7.17714084 C4.84389797,7.15291689 4.5576537,7.24409993 4.33667445,7.43060324 C4.11545819,7.61730318 3.9777622,7.88416144 3.95333447,8.17249237 C3.92910491,8.4606166 4.02030903,8.74679473 4.20685545,8.96772291 L5.36394554,10.3325166 C5.56172246,10.5649096 5.84774989,10.7039502 6.15270326,10.715768 C6.45783818,10.7275848 6.75371436,10.610996 6.96884386,10.3945549 L9.83996031,7.49813708 C10.0436475,7.29292395 10.1577024,7.01503945 10.1565265,6.72574554 C10.1555324,6.43643651 10.0395073,6.15935869 9.83424672,5.95552194 C9.61303046,5.73612645 9.30827376,5.62170461 8.99722858,5.64120094 L8.99741552,5.64118077 Z M12.1799302,7.22103406 L12.1797332,7.22103406 C11.8893739,7.22046338 11.6106435,7.33567269 11.4053981,7.5410875 C11.2001375,7.74669389 11.0852909,8.02536994 11.0864669,8.31564698 C11.0868699,8.60515264 11.202306,8.88243717 11.4073699,9.08687892 C11.6124338,9.29110893 11.8903825,9.40553077 12.1797382,9.40494316 L18.9598978,9.40494316 C19.248487,9.40435005 19.5254574,9.28953087 19.729543,9.08530591 C19.9338202,8.88127253 20.0486619,8.60437117 20.0492582,8.3156369 C20.0502368,8.02613124 19.935787,7.74783836 19.7315097,7.54264035 C19.5272325,7.33723058 19.2494805,7.22162394 18.9598978,7.22103406 L12.1799302,7.22103406 Z M9.12701768,13.2867478 C8.81557915,13.2702044 8.51183607,13.3875822 8.29257141,13.6095339 L6.26003639,15.6622703 L5.87394299,15.2045779 L5.87394299,15.204381 C5.68680655,14.9840023 5.41949327,14.8471297 5.13127724,14.8234941 C4.8428847,14.8000582 4.55704386,14.8918346 4.33661933,15.0791245 C4.11540307,15.2656278 3.97770708,15.532486 3.95327935,15.8208119 C3.92904979,16.1089361 4.02025391,16.3951143 4.20680033,16.6162441 L5.36389042,17.9755423 C5.56067894,18.2087219 5.84611635,18.3491439 6.15123614,18.3621414 C6.45617438,18.3753366 6.75265067,18.2599306 6.96873831,18.0444727 L9.83965305,15.1411477 L9.83985008,15.1411477 C10.0431389,14.9357379 10.1568055,14.6582467 10.1558235,14.3693107 C10.1548321,14.0801983 10.0390037,13.8034785 9.83413649,13.5998434 C9.64443826,13.4125536 9.392884,13.3012778 9.12677093,13.2869038 L9.12701768,13.2867478 Z M12.1799302,14.8707353 L12.1797332,14.8707353 C11.8903573,14.8701647 11.6124086,14.9845875 11.4073648,15.1888175 C11.2023009,15.3932441 11.0868642,15.6705387 11.0864709,15.9598477 C11.0868648,16.2493534 11.2023009,16.5266379 11.4073648,16.7310797 C11.6124287,16.9353097 11.8903775,17.0497315 12.1797332,17.048949 L18.9598928,17.048949 C19.248482,17.0485512 19.5254524,16.9337316 19.729538,16.7295067 C19.9338152,16.5254733 20.0486568,16.2485719 20.0492468,15.9598377 C20.0486559,15.6713151 19.9338101,15.3944087 19.729538,15.1903703 C19.5254574,14.9861403 19.2484921,14.8713252 18.9598928,14.8707353 L12.1799302,14.8707353 Z" id="Shape" fill="#000000" fill-rule="nonzero"></path>
            </g>
        </g>
    </g>
</svg>