<?xml version="1.0" encoding="UTF-8"?>
<svg width="45px" height="24px" viewBox="0 0 45 24" version="1.1" xmlns="http://www.w3.org/2000/svg" xmlns:xlink="http://www.w3.org/1999/xlink">
    <title>child-icon</title>
    <g id="Parent-Design" stroke="none" stroke-width="1" fill="none" fill-rule="evenodd">
        <g id="Home-Parent" transform="translate(-175.000000, -1157.000000)" fill="#000000" fill-rule="nonzero">
            <path d="M219.287668,1162.05651 C219.400993,1160.92326 219.073456,1159.78191 218.365239,1158.84235 C217.657031,1157.90279 216.650203,1157.27358 215.529687,1157.07015 C214.386702,1156.86199 213.265153,1157.12093 212.368637,1157.79584 C211.70751,1158.29421 211.250532,1158.9681 211.001997,1159.71637 C210.237298,1159.51931 209.439938,1159.41238 208.619093,1159.41238 C203.028738,1159.41238 198.480559,1164.25446 198.480559,1170.20604 C198.480559,1176.15719 203.028393,1180.9997 208.619093,1180.9997 C214.209706,1181.00037 218.757627,1176.15831 218.757627,1170.2069 C218.757627,1168.33114 218.304995,1166.566 217.511337,1165.02753 C217.580274,1164.98213 217.653579,1164.94547 217.720168,1164.89536 C218.615307,1164.22011 219.172207,1163.21227 219.287564,1162.05714 L219.287668,1162.05651 Z M208.619695,1160.85899 C212.123029,1160.85899 215.141174,1163.10403 216.515562,1166.32258 L210.179688,1166.32258 C208.624774,1166.32258 207.213369,1165.46608 206.495743,1164.08732 C206.384096,1163.87311 206.172914,1163.72851 205.933143,1163.70228 C205.695059,1163.67672 205.455288,1163.77121 205.300262,1163.95617 L204.55742,1164.84089 C203.766155,1165.78277 202.60702,1166.32289 201.376915,1166.32289 L200.723527,1166.32289 C202.09826,1163.10399 205.116663,1160.85899 208.619738,1160.85899 L208.619695,1160.85899 Z M208.619695,1179.55381 C203.827028,1179.55381 199.928293,1175.36109 199.928293,1170.20643 C199.928293,1169.36203 200.042291,1168.54752 200.238347,1167.76911 L201.377285,1167.76911 C203.035848,1167.76911 204.598854,1167.04074 205.665221,1165.77094 L205.779554,1165.63474 C206.829048,1166.97143 208.437508,1167.76911 210.180093,1167.76911 L217.0015,1167.76911 C217.197547,1168.5476 217.311553,1169.36242 217.311553,1170.20643 C217.31189,1175.36058 213.412733,1179.55381 208.620152,1179.55381 L208.619695,1179.55381 Z M216.849151,1163.73953 C216.823258,1163.75903 216.795346,1163.77517 216.768781,1163.79367 C215.654979,1162.19364 214.135706,1160.93358 212.374612,1160.18307 C212.533341,1159.70151 212.818841,1159.26804 213.239879,1158.95098 C213.679734,1158.62008 214.209397,1158.44757 214.767933,1158.44757 C214.934056,1158.44757 215.102194,1158.46304 215.271683,1158.4933 C216.03336,1158.63152 216.722087,1159.06464 217.210375,1159.71299 C217.698991,1160.36134 217.925978,1161.14222 217.848637,1161.91296 C217.77432,1162.66152 217.419542,1163.31051 216.849247,1163.73965 L216.849151,1163.73953 Z M206.343023,1170.95573 C206.343023,1171.56138 205.85037,1172.05404 205.245062,1172.05404 C204.639755,1172.05404 204.147101,1171.56138 204.147101,1170.95573 C204.147101,1170.35043 204.639755,1169.85777 205.245062,1169.85777 C205.85037,1169.85777 206.343023,1170.35042 206.343023,1170.95573 Z M213.092117,1170.95573 C213.092117,1171.56138 212.599464,1172.05404 211.994156,1172.05404 C211.388848,1172.05404 210.896195,1171.56138 210.896195,1170.95573 C210.896195,1170.35043 211.388848,1169.85777 211.994156,1169.85777 C212.599464,1169.85777 213.092117,1170.35042 213.092117,1170.95573 Z M211.136982,1174.54085 C211.136982,1175.47972 210.078019,1176.16136 208.619265,1176.16136 C207.160855,1176.16136 206.101892,1175.47972 206.101892,1174.54085 C206.101892,1174.14169 206.425728,1173.81785 206.82489,1173.81785 C207.192105,1173.81785 207.49577,1174.09192 207.541836,1174.4467 C207.649109,1174.53615 208.019355,1174.71505 208.618963,1174.71505 C209.218891,1174.71505 209.58917,1174.53615 209.69678,1174.4467 C209.742851,1174.09158 210.046511,1173.81785 210.413726,1173.81785 C210.813224,1173.81785 211.13706,1174.14169 211.13706,1174.54085 L211.136982,1174.54085 Z M185.138534,1159.41268 C179.548179,1159.41268 175,1164.25476 175,1170.20634 C175,1176.15749 179.548179,1181 185.138534,1181 C190.728889,1181 195.277068,1176.15792 195.277068,1170.20634 C195.276732,1164.25485 190.728889,1159.41268 185.138534,1159.41268 Z M193.829936,1170.20634 C193.829936,1175.36049 189.930771,1179.55373 185.138534,1179.55373 C180.345522,1179.55373 176.446271,1175.36101 176.446271,1170.20634 C176.446271,1169.36194 176.560268,1168.54743 176.756324,1167.76903 L183.578076,1167.76903 C185.319972,1167.76903 186.929121,1166.97138 187.97827,1165.63431 L188.092939,1165.77084 C189.15965,1167.04063 190.722312,1167.76902 192.380875,1167.76902 L193.519814,1167.76902 C193.716197,1168.54751 193.830203,1169.36198 193.830203,1170.20633 L193.829936,1170.20634 Z M192.38091,1166.32269 C191.150804,1166.32269 189.991635,1165.78227 189.200404,1164.84067 L188.457227,1163.95595 C188.302201,1163.771 188.065124,1163.67684 187.824682,1163.70206 C187.584575,1163.72829 187.373729,1163.87289 187.262082,1164.08677 C186.544465,1165.46589 185.132792,1166.32238 183.578136,1166.32238 L182.61034,1166.32238 C182.990003,1165.97803 183.329645,1165.58324 183.610075,1165.13359 C183.821592,1164.79462 183.71802,1164.34838 183.379386,1164.13756 C183.040752,1163.92604 182.594844,1164.02962 182.383353,1164.36825 C181.619997,1165.59199 180.302788,1166.32235 178.859788,1166.32235 L177.241944,1166.32269 C178.616677,1163.10413 181.634735,1160.85914 185.138155,1160.85914 C188.641489,1160.85914 191.659633,1163.10413 193.034022,1166.32269 L192.38091,1166.32269 Z M189.610956,1170.9559 C189.610956,1171.56155 189.118302,1172.05421 188.512995,1172.05421 C187.907687,1172.05421 187.414689,1171.56156 187.414689,1170.9559 C187.414689,1170.35061 187.907343,1169.85794 188.512995,1169.85794 C189.118294,1169.85794 189.610956,1170.3506 189.610956,1170.9559 Z M182.861862,1170.9559 C182.861862,1171.56155 182.369208,1172.05421 181.763901,1172.05421 C181.158593,1172.05421 180.66594,1171.56156 180.66594,1170.9559 C180.66594,1170.35061 181.158593,1169.85794 181.763901,1169.85794 C182.369208,1169.85794 182.861862,1170.3506 182.861862,1170.9559 Z M187.655907,1174.54102 C187.655907,1175.47989 186.596944,1176.16153 185.13819,1176.16153 C183.679436,1176.16153 182.620472,1175.47989 182.620472,1174.54102 C182.620472,1174.14186 182.943972,1173.81802 183.34347,1173.81802 C183.711021,1173.81802 184.014351,1174.09209 184.060416,1174.44687 C184.16769,1174.53632 184.537935,1174.71522 185.137888,1174.71522 C185.737841,1174.71522 186.108095,1174.53632 186.21536,1174.44687 C186.261431,1174.09176 186.565091,1173.81802 186.932306,1173.81802 C187.332476,1173.81802 187.655976,1174.14186 187.655976,1174.54102 L187.655907,1174.54102 Z" id="child-icon"></path>
        </g>
    </g>
</svg>