<?xml version="1.0" encoding="UTF-8"?>
<svg width="23px" height="25px" viewBox="0 0 23 25" version="1.1" xmlns="http://www.w3.org/2000/svg" xmlns:xlink="http://www.w3.org/1999/xlink">
    <title>Home-icon-white</title>
    <defs>
        <filter id="filter-1">
            <feColorMatrix in="SourceGraphic" type="matrix" values="0 0 0 0 1.000000 0 0 0 0 1.000000 0 0 0 0 1.000000 0 0 0 1.000000 0"></feColorMatrix>
        </filter>
    </defs>
    <g id="Parent-Design" stroke="none" stroke-width="1" fill="none" fill-rule="evenodd">
        <g id="Home-icon-white" transform="translate(-55.000000, -1156.000000)" filter="url(#filter-1)">
            <g transform="translate(55.000000, 1156.000000)">
                <path d="M21.5174861,7.87483992 L13.603757,0.862849313 C12.3050557,-0.287616438 10.4139147,-0.287616438 9.11521336,0.862849313 L1.2093692,7.87483992 C0.446428571,8.55021687 0,9.54231968 0,10.5844945 L0,21.4316886 C0,23.3993624 1.55037106,25 3.44967532,25 L19.2775974,25 C21.1769017,25 22.7272727,23.3991241 22.7272727,21.4316886 L22.7272727,10.5844945 C22.7272727,9.54231968 22.2889981,8.55021687 21.5179035,7.87483992 L21.5174861,7.87483992 Z M7.30459184,23.3404765 L7.30459184,15.8368176 C7.30459184,15.3782606 7.66985158,15.0030777 8.11628015,15.0030777 L14.6097866,15.0030777 C15.0562152,15.0030777 15.421475,15.3782606 15.421475,15.8368176 L15.421475,23.3404765 L7.30459184,23.3404765 Z M21.1032931,21.4396449 C21.1032931,22.4902047 20.2834416,23.3404765 19.2769944,23.3404765 L17.0448516,23.3404765 L17.0448516,15.8368176 C17.0448516,14.4611468 15.9490724,13.3355979 14.6097866,13.3355979 L8.11628015,13.3355979 C6.77699443,13.3355979 5.68121521,14.4611468 5.68121521,15.8368176 L5.68121521,23.3404765 L3.44907236,23.3404765 C2.44262523,23.3404765 1.62277365,22.4899665 1.62277365,21.4396449 L1.62277365,10.5843516 C1.62277365,10.0256506 1.85812616,9.49210472 2.26396104,9.13369186 L10.1776902,2.12170125 C10.859462,1.51316642 11.8579777,1.51316642 12.5397495,2.12170125 L20.4534787,9.13369186 C20.8593228,9.49212378 21.094666,10.0258888 21.094666,10.5843516 L21.094666,21.4315457 L21.1032931,21.4396449 Z" id="Shape" fill="#000000" fill-rule="nonzero"></path>
            </g>
        </g>
    </g>
</svg>